Coordinates
version=1
nRows=40
nColumns=38
inDegrees=no

Units are S.I. units (second, meters, Newtons, ...)
If the header above contains a line with 'inDegrees', this indicates whether rotational values are in degrees (yes) or radians (no).

endheader
time	pelvis_tilt	pelvis_list	pelvis_rotation	pelvis_tx	pelvis_ty	pelvis_tz	hip_flexion_r	hip_adduction_r	hip_rotation_r	knee_angle_r	ankle_angle_r	subtalar_angle_r	mtp_angle_r	hip_flexion_l	hip_adduction_l	hip_rotation_l	knee_angle_l	ankle_angle_l	subtalar_angle_l	mtp_angle_l	lumbar_extension	lumbar_bending	lumbar_rotation	arm_flex_r	arm_add_r	arm_rot_r	elbow_flex_r	pro_sup_r	wrist_flex_r	wrist_dev_r	arm_flex_l	arm_add_l	arm_rot_l	elbow_flex_l	pro_sup_l	wrist_flex_l	wrist_dev_l
1.91	-0.136595	1.21228	-1.38675	0.942639	-0.453881	0.960822	-0.386439	0.110204	-0.168477	0.175343	-0.252854	0	0	-0.0678704	-0.228279	-0.174805	1.27385	-0.18532	0	0	-0.414911	0.104567	0.00723536	-0.20389	0.0367373	-0.786592	0.669122	0.757864	0	0	0.07016	-0.329351	0.591193	0.68927	1.25443	0	0
1.92	-0.122411	1.20975	-1.40776	0.941722	-0.462926	0.961368	-0.403277	0.104151	-0.16646	0.170621	-0.251248	0	0	-0.0532121	-0.21926	-0.182496	1.25846	-0.167921	0	0	-0.420952	0.0977077	0.0130276	-0.202236	0.0366567	-0.787311	0.671058	0.756456	0	0	0.0603598	-0.335391	0.597709	0.694821	1.25029	0	0
1.93	-0.108772	1.20585	-1.42776	0.940934	-0.47192	0.961819	-0.42172	0.098395	-0.164741	0.164935	-0.24901	0	0	-0.0414182	-0.2104	-0.191709	1.23778	-0.149126	0	0	-0.42881	0.0912424	0.0179373	-0.200658	0.0366636	-0.787659	0.674422	0.754945	0	0	0.0504454	-0.342769	0.604441	0.703594	1.24089	0	0
1.94	-0.0979203	1.20231	-1.44466	0.940217	-0.481036	0.962069	-0.439673	0.0935232	-0.162727	0.159356	-0.246856	0	0	-0.0306313	-0.202763	-0.202753	1.21192	-0.134886	0	0	-0.435736	0.0859028	0.0224692	-0.199744	0.0362586	-0.787237	0.678163	0.753737	0	0	0.0406214	-0.349229	0.609949	0.711871	1.22887	0	0
1.95	-0.0891341	1.19879	-1.45899	0.939547	-0.490265	0.96214	-0.457681	0.0894172	-0.160331	0.153766	-0.24438	0	0	-0.0214368	-0.196174	-0.215495	1.18079	-0.123685	0	0	-0.442262	0.0815156	0.026615	-0.199492	0.0357809	-0.786338	0.68271	0.752654	0	0	0.0310752	-0.355143	0.615018	0.720067	1.21492	0	0
1.96	-0.0817329	1.1947	-1.47135	0.938945	-0.499541	0.962066	-0.476407	0.0859452	-0.157443	0.148102	-0.24165	0	0	-0.0147413	-0.190351	-0.22931	1.14423	-0.115153	0	0	-0.449086	0.0776361	0.0302945	-0.198952	0.0357691	-0.786239	0.687607	0.750258	0	0	0.0216407	-0.361489	0.620836	0.728262	1.20298	0	0
1.97	-0.0757189	1.1903	-1.48175	0.938436	-0.508859	0.961843	-0.495566	0.0830647	-0.154746	0.142267	-0.238886	0	0	-0.0103349	-0.184942	-0.243649	1.102	-0.110462	0	0	-0.45602	0.0743576	0.0336483	-0.197891	0.0366228	-0.787877	0.693422	0.745007	0	0	0.0122893	-0.367671	0.626118	0.736182	1.19333	0	0
1.98	-0.0718013	1.1867	-1.48955	0.938047	-0.518221	0.961407	-0.513601	0.0808492	-0.153171	0.136826	-0.236239	0	0	-0.00683277	-0.179811	-0.257441	1.05451	-0.109679	0	0	-0.461842	0.0721214	0.0369508	-0.19704	0.0371045	-0.789049	0.699063	0.740089	0	0	0.0034034	-0.372806	0.630724	0.742387	1.18709	0	0
1.99	-0.0705366	1.18597	-1.494	0.937806	-0.52758	0.960614	-0.523599	0.0793532	-0.152609	0.133206	-0.233669	0	0	-0.00102927	-0.17487	-0.269563	1.00314	-0.110865	0	0	-0.464485	0.0710332	0.0398931	-0.195994	0.0366187	-0.788925	0.703037	0.737502	0	0	-0.00489087	-0.376226	0.634046	0.745481	1.18522	0	0
2	-0.0709204	1.18807	-1.4966	0.93764	-0.536965	0.95953	-0.523599	0.0779271	-0.151686	0.132905	-0.230001	0	0	0.00642494	-0.169682	-0.281821	0.946728	-0.116766	0	0	-0.464374	0.0703993	0.0426875	-0.194153	0.0352603	-0.787916	0.704763	0.735452	0	0	-0.0124674	-0.378495	0.636372	0.74654	1.18316	0	0
2.01	-0.072146	1.19118	-1.49736	0.937585	-0.546473	0.958318	-0.523599	0.077033	-0.150725	0.134306	-0.225	0	0	0.013423	-0.16425	-0.295081	0.886733	-0.126479	0	0	-0.462433	0.0703803	0.0446406	-0.1922	0.033314	-0.786366	0.70493	0.733778	0	0	-0.0195937	-0.379392	0.637625	0.745549	1.18058	0	0
2.02	-0.0734741	1.19459	-1.49752	0.937612	-0.556054	0.957043	-0.523599	0.0762108	-0.149811	0.137229	-0.218275	0	0	0.018906	-0.15803	-0.3097	0.824177	-0.14059	0	0	-0.45969	0.0703602	0.0461333	-0.190177	0.030962	-0.784017	0.703918	0.73207	0	0	-0.0262133	-0.37944	0.638867	0.742457	1.17944	0	0
2.03	-0.0732832	1.19897	-1.49907	0.937706	-0.5657	0.955705	-0.523599	0.0745304	-0.150276	0.141958	-0.205851	0	0	0.0231967	-0.150202	-0.325884	0.758921	-0.166538	0	0	-0.455523	0.0695335	0.0474512	-0.188197	0.027061	-0.778079	0.700457	0.725822	0	0	-0.0321725	-0.378275	0.638928	0.736787	1.17928	0	0
2.04	-0.0746665	1.2049	-1.4977	0.937949	-0.575436	0.954127	-0.523599	0.0741981	-0.151459	0.143283	-0.199597	0	0	0.0280929	-0.141669	-0.33892	0.694157	-0.175068	0	0	-0.449954	0.0698472	0.0472146	-0.185568	0.0242105	-0.775508	0.69704	0.722444	0	0	-0.0390793	-0.376059	0.634145	0.731284	1.179	0	0
2.05	-0.076475	1.21179	-1.49554	0.938263	-0.58517	0.952361	-0.523599	0.0740902	-0.152974	0.144852	-0.192136	0	0	0.0319932	-0.131925	-0.349196	0.627383	-0.179878	0	0	-0.443547	0.0704498	0.0465019	-0.18242	0.021616	-0.774344	0.692716	0.721126	0	0	-0.0459388	-0.373158	0.627255	0.725546	1.17804	0	0
2.06	-0.0786547	1.219	-1.49305	0.938641	-0.594764	0.95046	-0.523599	0.0738699	-0.153633	0.148633	-0.183193	0	0	0.0344483	-0.120608	-0.35505	0.555632	-0.186881	0	0	-0.437298	0.0712238	0.0458023	-0.178553	0.0190067	-0.773504	0.688193	0.720228	0	0	-0.0522121	-0.369549	0.618938	0.719042	1.17939	0	0
2.07	-0.0815215	1.22675	-1.48947	0.939122	-0.604332	0.948435	-0.523599	0.0739304	-0.153515	0.153201	-0.17441	0	0	0.0357706	-0.108486	-0.356282	0.483563	-0.193517	0	0	-0.430639	0.0722119	0.0442964	-0.174582	0.0165352	-0.772733	0.684113	0.719925	0	0	-0.0585532	-0.36577	0.608967	0.712909	1.18043	0	0
2.08	-0.0854578	1.23577	-1.48322	0.939772	-0.614115	0.946268	-0.523599	0.0749841	-0.154897	0.156719	-0.166966	0	0	0.0363924	-0.0954118	-0.350378	0.409165	-0.201858	0	0	-0.422175	0.0737404	0.0414565	-0.171761	0.0146909	-0.773498	0.680918	0.720578	0	0	-0.0648848	-0.362154	0.598781	0.707079	1.17894	0	0
2.09	-0.0900605	1.24523	-1.47556	0.94058	-0.624029	0.944065	-0.523599	0.0761993	-0.158084	0.160851	-0.160444	0	0	0.0357345	-0.0817207	-0.340148	0.335887	-0.209093	0	0	-0.413009	0.0755922	0.0385717	-0.17	0.0133612	-0.776164	0.678736	0.721694	0	0	-0.0698543	-0.358897	0.591016	0.701176	1.17386	0	0
2.1	-0.0935417	1.25342	-1.4695	0.941473	-0.633993	0.942009	-0.523599	0.0760987	-0.162865	0.169593	-0.153031	0	0	0.0312508	-0.0671074	-0.328608	0.263768	-0.214469	0	0	-0.404957	0.0769561	0.0364251	-0.168492	0.0118741	-0.778885	0.676612	0.721482	0	0	-0.073789	-0.355357	0.584423	0.694481	1.17059	0	0
2.11	-0.0964771	1.25998	-1.46482	0.942346	-0.644044	0.940141	-0.523599	0.0749752	-0.167372	0.180566	-0.146619	0	0	0.0227697	-0.0524766	-0.315745	0.193295	-0.219057	0	0	-0.398388	0.0780507	0.0353143	-0.167047	0.00989108	-0.780156	0.674062	0.719626	0	0	-0.0770089	-0.351663	0.578395	0.687448	1.16818	0	0
2.12	-0.0999993	1.26588	-1.46035	0.943152	-0.65422	0.938382	-0.523599	0.0733994	-0.170695	0.192268	-0.141867	0	0	0.0124518	-0.0393482	-0.301363	0.126588	-0.22805	0	0	-0.392094	0.0789633	0.0349725	-0.165612	0.00755342	-0.780579	0.670779	0.717046	0	0	-0.0797798	-0.34786	0.572646	0.679932	1.16712	0	0
2.13	-0.104571	1.27112	-1.45562	0.943793	-0.664564	0.936754	-0.523599	0.0716901	-0.173493	0.206128	-0.137725	0	0	0.00269608	-0.0297023	-0.287924	0.07146	-0.242154	0	0	-0.386145	0.0795168	0.0353093	-0.165129	0.00529176	-0.779971	0.667868	0.715412	0	0	-0.0827629	-0.344436	0.566257	0.673075	1.16766	0	0
2.14	-0.10959	1.27571	-1.4509	0.944253	-0.675087	0.935266	-0.523599	0.0698479	-0.175818	0.221545	-0.134429	0	0	-0.00331527	-0.0243746	-0.279742	0.0387971	-0.256299	0	0	-0.380789	0.0795385	0.0359591	-0.16555	0.00355027	-0.779255	0.665442	0.714531	0	0	-0.0862637	-0.341707	0.558543	0.667502	1.17051	0	0
2.15	-0.114274	1.27893	-1.44717	0.944585	-0.68574	0.933962	-0.523599	0.067438	-0.177832	0.239065	-0.132627	0	0	-0.00413728	-0.0231554	-0.279523	0.0358254	-0.264309	0	0	-0.377074	0.0790011	0.0366334	-0.166033	0.00237703	-0.779008	0.663552	0.7133	0	0	-0.0905276	-0.340462	0.549887	0.665373	1.16858	0	0
2.16	-0.116851	1.28089	-1.44613	0.94486	-0.696559	0.932854	-0.523599	0.0639361	-0.179566	0.258651	-0.132583	0	0	-0.00127995	-0.0239304	-0.283924	0.057949	-0.268041	0	0	-0.374624	0.0777116	0.0378472	-0.166998	0.00155889	-0.779172	0.661964	0.711458	0	0	-0.0947448	-0.33989	0.541753	0.664356	1.16825	0	0
2.17	-0.116256	1.28181	-1.44838	0.945197	-0.707589	0.931953	-0.523599	0.0593283	-0.181083	0.280102	-0.134081	0	0	0.00222941	-0.0249486	-0.289109	0.0940268	-0.267719	0	0	-0.372932	0.0755859	0.0392832	-0.168733	0.00102208	-0.779977	0.660721	0.709931	0	0	-0.0986993	-0.339692	0.534562	0.663555	1.17061	0	0
2.18	-0.111795	1.2821	-1.4544	0.945659	-0.718893	0.931274	-0.523599	0.0536457	-0.181853	0.302036	-0.137627	0	0	0.00362193	-0.0244443	-0.292962	0.130525	-0.264047	0	0	-0.371352	0.0723976	0.0404315	-0.171328	0.000586291	-0.781027	0.659549	0.709183	0	0	-0.102667	-0.339786	0.52833	0.662819	1.17124	0	0
2.19	-0.103629	1.28259	-1.46388	0.946216	-0.730489	0.93078	-0.523599	0.0471285	-0.180851	0.323486	-0.142247	0	0	0.00293052	-0.0215155	-0.29374	0.158181	-0.262358	0	0	-0.368716	0.0681603	0.0413177	-0.175026	0.000456838	-0.782379	0.658186	0.708896	0	0	-0.106453	-0.340036	0.523167	0.661779	1.17057	0	0
2.2	-0.0916251	1.28325	-1.4766	0.94687	-0.742262	0.930494	-0.523599	0.0396235	-0.179504	0.347645	-0.148678	0	0	0.000748427	-0.0165559	-0.292593	0.175477	-0.269952	0	0	-0.365426	0.0627692	0.0413559	-0.178935	0.00037653	-0.783483	0.655665	0.709015	0	0	-0.110125	-0.340683	0.518738	0.660785	1.16769	0	0
2.21	-0.0759864	1.28364	-1.49233	0.947542	-0.754154	0.930492	-0.523599	0.0313082	-0.17759	0.374897	-0.157709	0	0	-0.00266742	-0.011002	-0.29237	0.187741	-0.285183	0	0	-0.362199	0.0564608	0.0414826	-0.183089	0.000447672	-0.784985	0.652016	0.709616	0	0	-0.11226	-0.341599	0.51639	0.658323	1.16777	0	0
2.22	-0.0575304	1.28372	-1.51027	0.948247	-0.766097	0.930743	-0.523599	0.0224791	-0.174885	0.403724	-0.169595	0	0	-0.0073442	-0.00558966	-0.293836	0.198082	-0.302747	0	0	-0.359543	0.0496305	0.0421803	-0.187951	0.000813269	-0.786786	0.648868	0.711112	0	0	-0.112689	-0.342748	0.515771	0.654577	1.17125	0	0
2.23	-0.0396158	1.28341	-1.52694	0.949074	-0.778078	0.931178	-0.523599	0.0139213	-0.171064	0.434471	-0.184584	0	0	-0.0127263	-0.00121058	-0.296581	0.209242	-0.317134	0	0	-0.357031	0.0433386	0.041431	-0.192945	0.0012096	-0.787822	0.646428	0.715001	0	0	-0.113564	-0.344209	0.513988	0.652097	1.17189	0	0
2.24	-0.024983	1.28265	-1.53937	0.950081	-0.790113	0.931725	-0.523599	0.00594878	-0.167371	0.46931	-0.200789	0	0	-0.0186879	0.00151804	-0.298315	0.222426	-0.325075	0	0	-0.354631	0.0386205	0.039261	-0.198271	0.00241122	-0.790816	0.645104	0.71696	0	0	-0.114778	-0.345698	0.511879	0.650916	1.17135	0	0
2.25	-0.0140865	1.28098	-1.54703	0.951324	-0.802198	0.932406	-0.523599	-0.0016672	-0.164623	0.508464	-0.221798	0	0	-0.0257122	0.00293973	-0.298737	0.237904	-0.327464	0	0	-0.35318	0.0359973	0.0365334	-0.2044	0.00393254	-0.795378	0.645756	0.717559	0	0	-0.115766	-0.347646	0.51031	0.652046	1.16823	0	0
2.26	-0.00603838	1.2778	-1.55101	0.952789	-0.814188	0.933308	-0.523599	-0.00945715	-0.162881	0.552388	-0.246124	0	0	-0.0347739	0.00392256	-0.298236	0.253359	-0.324213	0	0	-0.353601	0.0350081	0.0339168	-0.211606	0.00509503	-0.798979	0.648675	0.719152	0	0	-0.115598	-0.350164	0.511041	0.654447	1.16531	0	0
2.27	0.000251651	1.27222	-1.55285	0.954331	-0.826	0.934516	-0.523599	-0.0173397	-0.161801	0.599324	-0.277389	0	0	-0.0472987	0.00474653	-0.298704	0.266736	-0.316578	0	0	-0.356799	0.0351959	0.0313921	-0.219529	0.00650304	-0.802221	0.654512	0.721732	0	0	-0.114061	-0.353047	0.514045	0.657653	1.1627	0	0
2.28	0.00663878	1.26686	-1.55477	0.955828	-0.837607	0.935827	-0.513333	-0.0256871	-0.161565	0.650405	-0.316346	0	0	-0.0606857	0.00608973	-0.300651	0.277463	-0.306805	0	0	-0.359911	0.0355923	0.0291704	-0.226958	0.00835392	-0.80675	0.660802	0.723643	0	0	-0.110833	-0.355933	0.519193	0.660351	1.15962	0	0
2.29	0.0156229	1.26264	-1.55923	0.957242	-0.849009	0.937133	-0.49437	-0.0349406	-0.162537	0.705364	-0.359172	0	0	-0.0746682	0.00881225	-0.303266	0.284536	-0.297818	0	0	-0.361733	0.0350068	0.027049	-0.232937	0.0101669	-0.811962	0.664767	0.724593	0	0	-0.106099	-0.359514	0.526207	0.662708	1.15771	0	0
2.3	0.0270955	1.25844	-1.56676	0.958536	-0.860147	0.938438	-0.472121	-0.0459873	-0.162886	0.761384	-0.408749	0	0	-0.0902295	0.0125217	-0.308073	0.289283	-0.288726	0	0	-0.363645	0.0333566	0.0249529	-0.23798	0.0118071	-0.815774	0.668773	0.727699	0	0	-0.100416	-0.363773	0.533946	0.666012	1.15517	0	0
